<svg width="217" height="183" viewBox="0 0 217 183" fill="none" xmlns="http://www.w3.org/2000/svg">
<path fill-rule="evenodd" clip-rule="evenodd" d="M67.9771 19.3276C80.3246 13.8494 88.7386 -0.875225 102.424 0.0557228C115.911 0.97324 121.834 20.0277 134.909 23.8807C157.79 30.6234 186.69 13.0796 203.93 29.9682C219.667 45.3848 220.277 77.8216 205.941 93.4654C190.232 110.608 154.109 85.6962 137.738 102.198C118.39 121.702 144.179 170.857 118.714 181.391C97.2327 190.278 90.2642 143.653 70.506 130.011C52.0493 117.267 22.4496 124.755 9.78413 106.18C-2.94355 87.5144 -2.25271 59.2294 9.8873 41.1105C21.6716 23.5225 48.6246 27.9135 67.9771 19.3276Z" fill="url(#paint0_linear_14:7)"/>
<defs>
<linearGradient id="paint0_linear_14:7" x1="34.7378" y1="136.03" x2="186.129" y2="8.58796" gradientUnits="userSpaceOnUse">
<stop stop-color="#ACB6E5"/>
<stop offset="1" stop-color="#86FDE8"/>
</linearGradient>
</defs>
</svg>
